<svg width="30" height="30" viewBox="0 0 30 30" fill="none" xmlns="http://www.w3.org/2000/svg">
  <path d="M27.5 15C27.5 21.9036 21.9036 27.5 15 27.5C8.09644 27.5 2.5 21.9036 2.5 15C2.5 8.09644 8.09644 2.5 15 2.5C21.9036 2.5 27.5 8.09644 27.5 15Z" fill="white" stroke="#00900E"/>
  <path fill-rule="evenodd" clip-rule="evenodd" d="M15 7.5C10.86 7.5 7.5 10.86 7.5 15C7.5 19.14 10.86 22.5 15 22.5C19.14 22.5 22.5 19.14 22.5 15C22.5 10.86 19.14 7.5 15 7.5ZM12.9675 18.2175L10.275 15.525C9.9825 15.2325 9.9825 14.76 10.275 14.4675C10.5675 14.175 11.04 14.175 11.3325 14.4675L13.5 16.6275L18.66 11.4675C18.9525 11.175 19.425 11.175 19.7175 11.4675C20.01 11.76 20.01 12.2325 19.7175 12.525L14.025 18.2175C13.74 18.51 13.26 18.51 12.9675 18.2175Z" fill="#00900E"/>
</svg>
